#define VGA8x16_width 128
#define VGA8x16_height 256
static char VGA8x16_bits[] = {
  0x00, 0x00, 0x00, 0x00, 0x00, 0x00, 0x00, 0x00, 0xFF, 0x00, 0xFF, 0x00, 
  0x00, 0x00, 0x00, 0x00, 0x00, 0x00, 0x00, 0x00, 0x00, 0x00, 0x00, 0x00, 
  0xFF, 0x00, 0xFF, 0x00, 0x00, 0x00, 0x00, 0x00, 0x00, 0x7E, 0x7E, 0x00, 
  0x00, 0x00, 0x00, 0x00, 0xFF, 0x00, 0xFF, 0x78, 0x3C, 0xFC, 0xFE, 0x00, 
  0x00, 0x81, 0xFF, 0x00, 0x00, 0x18, 0x00, 0x00, 0xFF, 0x00, 0xFF, 0x70, 
  0x66, 0xCC, 0xC6, 0x18, 0x00, 0xA5, 0xDB, 0x36, 0x08, 0x3C, 0x18, 0x00, 
  0xFF, 0x00, 0xFF, 0x58, 0x66, 0xFC, 0xFE, 0x18, 0x00, 0x81, 0xFF, 0x7F, 
  0x1C, 0x3C, 0x3C, 0x00, 0xFF, 0x3C, 0xC3, 0x4C, 0x66, 0x0C, 0xC6, 0xDB, 
  0x00, 0x81, 0xFF, 0x7F, 0x3E, 0xE7, 0x7E, 0x00, 0xE7, 0x66, 0x99, 0x1E, 
  0x66, 0x0C, 0xC6, 0x3C, 0x00, 0xBD, 0xC3, 0x7F, 0x7F, 0xE7, 0xFF, 0x18, 
  0xC3, 0x42, 0xBD, 0x33, 0x3C, 0x0C, 0xC6, 0xE7, 0x00, 0x99, 0xE7, 0x7F, 
  0x3E, 0xE7, 0xFF, 0x3C, 0xC3, 0x42, 0xBD, 0x33, 0x18, 0x0C, 0xC6, 0x3C, 
  0x00, 0x81, 0xFF, 0x3E, 0x1C, 0x18, 0x7E, 0x3C, 0xE7, 0x66, 0x99, 0x33, 
  0x7E, 0x0E, 0xE6, 0xDB, 0x00, 0x81, 0xFF, 0x1C, 0x08, 0x18, 0x18, 0x18, 
  0xFF, 0x3C, 0xC3, 0x33, 0x18, 0x0F, 0xE7, 0x18, 0x00, 0x7E, 0x7E, 0x08, 
  0x00, 0x3C, 0x18, 0x00, 0xFF, 0x00, 0xFF, 0x1E, 0x18, 0x07, 0x67, 0x18, 
  0x00, 0x00, 0x00, 0x00, 0x00, 0x00, 0x3C, 0x00, 0xFF, 0x00, 0xFF, 0x00, 
  0x00, 0x00, 0x03, 0x00, 0x00, 0x00, 0x00, 0x00, 0x00, 0x00, 0x00, 0x00, 
  0xFF, 0x00, 0xFF, 0x00, 0x00, 0x00, 0x00, 0x00, 0x00, 0x00, 0x00, 0x00, 
  0x00, 0x00, 0x00, 0x00, 0xFF, 0x00, 0xFF, 0x00, 0x00, 0x00, 0x00, 0x00, 
  0x00, 0x00, 0x00, 0x00, 0x00, 0x00, 0x00, 0x00, 0xFF, 0x00, 0xFF, 0x00, 
  0x00, 0x00, 0x00, 0x00, 0x00, 0x00, 0x00, 0x00, 0x00, 0x00, 0x00, 0x00, 
  0x00, 0x00, 0x00, 0x00, 0x00, 0x00, 0x00, 0x00, 0x01, 0x40, 0x00, 0x00, 
  0x00, 0x3E, 0x00, 0x00, 0x00, 0x00, 0x00, 0x00, 0x00, 0x00, 0x00, 0x00, 
  0x03, 0x60, 0x18, 0x66, 0xFE, 0x63, 0x00, 0x18, 0x18, 0x18, 0x00, 0x00, 
  0x00, 0x00, 0x00, 0x00, 0x07, 0x70, 0x3C, 0x66, 0xDB, 0x06, 0x00, 0x3C, 
  0x3C, 0x18, 0x00, 0x00, 0x00, 0x00, 0x00, 0x00, 0x0F, 0x78, 0x7E, 0x66, 
  0xDB, 0x1C, 0x00, 0x7E, 0x7E, 0x18, 0x00, 0x00, 0x00, 0x00, 0x08, 0x7F, 
  0x1F, 0x7C, 0x18, 0x66, 0xDB, 0x36, 0x00, 0x18, 0x18, 0x18, 0x18, 0x0C, 
  0x00, 0x24, 0x1C, 0x7F, 0x7F, 0x7F, 0x18, 0x66, 0xDE, 0x63, 0x00, 0x18, 
  0x18, 0x18, 0x30, 0x06, 0x03, 0x66, 0x1C, 0x3E, 0x1F, 0x7C, 0x18, 0x66, 
  0xD8, 0x63, 0x00, 0x18, 0x18, 0x18, 0x7F, 0x7F, 0x03, 0xFF, 0x3E, 0x3E, 
  0x0F, 0x78, 0x7E, 0x66, 0xD8, 0x36, 0x7F, 0x7E, 0x18, 0x18, 0x30, 0x06, 
  0x03, 0x66, 0x3E, 0x1C, 0x07, 0x70, 0x3C, 0x00, 0xD8, 0x1C, 0x7F, 0x3C, 
  0x18, 0x7E, 0x18, 0x0C, 0x7F, 0x24, 0x7F, 0x1C, 0x03, 0x60, 0x18, 0x66, 
  0xD8, 0x30, 0x7F, 0x18, 0x18, 0x3C, 0x00, 0x00, 0x00, 0x00, 0x7F, 0x08, 
  0x01, 0x40, 0x00, 0x66, 0xD8, 0x63, 0x7F, 0x7E, 0x18, 0x18, 0x00, 0x00, 
  0x00, 0x00, 0x00, 0x00, 0x00, 0x00, 0x00, 0x00, 0x00, 0x3E, 0x00, 0x00, 
  0x00, 0x00, 0x00, 0x00, 0x00, 0x00, 0x00, 0x00, 0x00, 0x00, 0x00, 0x00, 
  0x00, 0x00, 0x00, 0x00, 0x00, 0x00, 0x00, 0x00, 0x00, 0x00, 0x00, 0x00, 
  0x00, 0x00, 0x00, 0x00, 0x00, 0x00, 0x00, 0x00, 0x00, 0x00, 0x00, 0x00, 
  0x00, 0x00, 0x00, 0x00, 0x00, 0x00, 0x00, 0x00, 0x00, 0x00, 0x00, 0x00, 
  0x00, 0x00, 0x00, 0x00, 0x00, 0x00, 0x00, 0x00, 0x00, 0x00, 0x00, 0x00, 
  0x18, 0x00, 0x00, 0x00, 0x00, 0x00, 0x00, 0x00, 0x00, 0x00, 0x00, 0x00, 
  0x00, 0x00, 0x66, 0x00, 0x18, 0x00, 0x00, 0x0C, 0x00, 0x00, 0x00, 0x00, 
  0x00, 0x00, 0x00, 0x00, 0x00, 0x18, 0x66, 0x00, 0x3E, 0x00, 0x1C, 0x0C, 
  0x30, 0x0C, 0x00, 0x00, 0x00, 0x00, 0x00, 0x00, 0x00, 0x3C, 0x66, 0x36, 
  0x63, 0x00, 0x36, 0x0C, 0x18, 0x18, 0x00, 0x00, 0x00, 0x00, 0x00, 0x00, 
  0x00, 0x3C, 0x24, 0x36, 0x43, 0x43, 0x36, 0x06, 0x0C, 0x30, 0x00, 0x00, 
  0x00, 0x00, 0x00, 0x40, 0x00, 0x3C, 0x00, 0x7F, 0x03, 0x63, 0x1C, 0x00, 
  0x0C, 0x30, 0x66, 0x18, 0x00, 0x00, 0x00, 0x60, 0x00, 0x18, 0x00, 0x36, 
  0x3E, 0x30, 0x6E, 0x00, 0x0C, 0x30, 0x3C, 0x18, 0x00, 0x00, 0x00, 0x30, 
  0x00, 0x18, 0x00, 0x36, 0x60, 0x18, 0x3B, 0x00, 0x0C, 0x30, 0xFF, 0x7E, 
  0x00, 0x7E, 0x00, 0x18, 0x00, 0x18, 0x00, 0x36, 0x60, 0x0C, 0x33, 0x00, 
  0x0C, 0x30, 0x3C, 0x18, 0x00, 0x00, 0x00, 0x0C, 0x00, 0x00, 0x00, 0x7F, 
  0x61, 0x06, 0x33, 0x00, 0x0C, 0x30, 0x66, 0x18, 0x18, 0x00, 0x00, 0x06, 
  0x00, 0x18, 0x00, 0x36, 0x63, 0x63, 0x33, 0x00, 0x18, 0x18, 0x00, 0x00, 
  0x18, 0x00, 0x18, 0x03, 0x00, 0x18, 0x00, 0x36, 0x3E, 0x61, 0x6E, 0x00, 
  0x30, 0x0C, 0x00, 0x00, 0x18, 0x00, 0x18, 0x01, 0x00, 0x00, 0x00, 0x00, 
  0x18, 0x00, 0x00, 0x00, 0x00, 0x00, 0x00, 0x00, 0x0C, 0x00, 0x00, 0x00, 
  0x00, 0x00, 0x00, 0x00, 0x18, 0x00, 0x00, 0x00, 0x00, 0x00, 0x00, 0x00, 
  0x00, 0x00, 0x00, 0x00, 0x00, 0x00, 0x00, 0x00, 0x00, 0x00, 0x00, 0x00, 
  0x00, 0x00, 0x00, 0x00, 0x00, 0x00, 0x00, 0x00, 0x00, 0x00, 0x00, 0x00, 
  0x00, 0x00, 0x00, 0x00, 0x00, 0x00, 0x00, 0x00, 0x00, 0x00, 0x00, 0x00, 
  0x00, 0x00, 0x00, 0x00, 0x00, 0x00, 0x00, 0x00, 0x00, 0x00, 0x00, 0x00, 
  0x00, 0x00, 0x00, 0x00, 0x00, 0x00, 0x00, 0x00, 0x00, 0x00, 0x00, 0x00, 
  0x00, 0x00, 0x00, 0x00, 0x00, 0x00, 0x00, 0x00, 0x3E, 0x18, 0x3E, 0x3E, 
  0x30, 0x7F, 0x1C, 0x7F, 0x3E, 0x3E, 0x00, 0x00, 0x00, 0x00, 0x00, 0x3E, 
  0x63, 0x1C, 0x63, 0x63, 0x38, 0x03, 0x06, 0x63, 0x63, 0x63, 0x00, 0x00, 
  0x60, 0x00, 0x06, 0x63, 0x63, 0x1E, 0x60, 0x60, 0x3C, 0x03, 0x03, 0x60, 
  0x63, 0x63, 0x18, 0x18, 0x30, 0x00, 0x0C, 0x63, 0x73, 0x18, 0x30, 0x60, 
  0x36, 0x03, 0x03, 0x60, 0x63, 0x63, 0x18, 0x18, 0x18, 0x7E, 0x18, 0x30, 
  0x7B, 0x18, 0x18, 0x3C, 0x33, 0x3F, 0x3F, 0x30, 0x3E, 0x7E, 0x00, 0x00, 
  0x0C, 0x00, 0x30, 0x18, 0x6F, 0x18, 0x0C, 0x60, 0x7F, 0x60, 0x63, 0x18, 
  0x63, 0x60, 0x00, 0x00, 0x06, 0x00, 0x60, 0x18, 0x67, 0x18, 0x06, 0x60, 
  0x30, 0x60, 0x63, 0x0C, 0x63, 0x60, 0x00, 0x00, 0x0C, 0x7E, 0x30, 0x18, 
  0x63, 0x18, 0x03, 0x60, 0x30, 0x60, 0x63, 0x0C, 0x63, 0x60, 0x18, 0x18, 
  0x18, 0x00, 0x18, 0x00, 0x63, 0x18, 0x63, 0x63, 0x30, 0x63, 0x63, 0x0C, 
  0x63, 0x30, 0x18, 0x18, 0x30, 0x00, 0x0C, 0x18, 0x3E, 0x7E, 0x7F, 0x3E, 
  0x78, 0x3E, 0x3E, 0x0C, 0x3E, 0x1E, 0x00, 0x0C, 0x60, 0x00, 0x06, 0x18, 
  0x00, 0x00, 0x00, 0x00, 0x00, 0x00, 0x00, 0x00, 0x00, 0x00, 0x00, 0x00, 
  0x00, 0x00, 0x00, 0x00, 0x00, 0x00, 0x00, 0x00, 0x00, 0x00, 0x00, 0x00, 
  0x00, 0x00, 0x00, 0x00, 0x00, 0x00, 0x00, 0x00, 0x00, 0x00, 0x00, 0x00, 
  0x00, 0x00, 0x00, 0x00, 0x00, 0x00, 0x00, 0x00, 0x00, 0x00, 0x00, 0x00, 
  0x00, 0x00, 0x00, 0x00, 0x00, 0x00, 0x00, 0x00, 0x00, 0x00, 0x00, 0x00, 
  0x00, 0x00, 0x00, 0x00, 0x00, 0x00, 0x00, 0x00, 0x00, 0x00, 0x00, 0x00, 
  0x00, 0x00, 0x00, 0x00, 0x00, 0x00, 0x00, 0x00, 0x00, 0x00, 0x00, 0x00, 
  0x00, 0x00, 0x00, 0x00, 0x00, 0x00, 0x00, 0x00, 0x00, 0x00, 0x00, 0x00, 
  0x3E, 0x08, 0x3F, 0x3C, 0x1F, 0x7F, 0x7F, 0x3C, 0x63, 0x3C, 0x78, 0x67, 
  0x0F, 0xC3, 0x63, 0x3E, 0x63, 0x1C, 0x66, 0x66, 0x36, 0x66, 0x66, 0x66, 
  0x63, 0x18, 0x30, 0x66, 0x06, 0xE7, 0x67, 0x63, 0x63, 0x36, 0x66, 0x43, 
  0x66, 0x46, 0x46, 0x43, 0x63, 0x18, 0x30, 0x66, 0x06, 0xFF, 0x6F, 0x63, 
  0x63, 0x63, 0x66, 0x03, 0x66, 0x16, 0x16, 0x03, 0x63, 0x18, 0x30, 0x36, 
  0x06, 0xFF, 0x7F, 0x63, 0x7B, 0x63, 0x3E, 0x03, 0x66, 0x1E, 0x1E, 0x03, 
  0x7F, 0x18, 0x30, 0x1E, 0x06, 0xDB, 0x7B, 0x63, 0x7B, 0x7F, 0x66, 0x03, 
  0x66, 0x16, 0x16, 0x7B, 0x63, 0x18, 0x30, 0x1E, 0x06, 0xC3, 0x73, 0x63, 
  0x7B, 0x63, 0x66, 0x03, 0x66, 0x06, 0x06, 0x63, 0x63, 0x18, 0x33, 0x36, 
  0x06, 0xC3, 0x63, 0x63, 0x3B, 0x63, 0x66, 0x43, 0x66, 0x46, 0x06, 0x63, 
  0x63, 0x18, 0x33, 0x66, 0x46, 0xC3, 0x63, 0x63, 0x03, 0x63, 0x66, 0x66, 
  0x36, 0x66, 0x06, 0x66, 0x63, 0x18, 0x33, 0x66, 0x66, 0xC3, 0x63, 0x63, 
  0x3E, 0x63, 0x3F, 0x3C, 0x1F, 0x7F, 0x0F, 0x5C, 0x63, 0x3C, 0x1E, 0x67, 
  0x7F, 0xC3, 0x63, 0x3E, 0x00, 0x00, 0x00, 0x00, 0x00, 0x00, 0x00, 0x00, 
  0x00, 0x00, 0x00, 0x00, 0x00, 0x00, 0x00, 0x00, 0x00, 0x00, 0x00, 0x00, 
  0x00, 0x00, 0x00, 0x00, 0x00, 0x00, 0x00, 0x00, 0x00, 0x00, 0x00, 0x00, 
  0x00, 0x00, 0x00, 0x00, 0x00, 0x00, 0x00, 0x00, 0x00, 0x00, 0x00, 0x00, 
  0x00, 0x00, 0x00, 0x00, 0x00, 0x00, 0x00, 0x00, 0x00, 0x00, 0x00, 0x00, 
  0x00, 0x00, 0x00, 0x00, 0x00, 0x00, 0x00, 0x00, 0x00, 0x00, 0x00, 0x00, 
  0x00, 0x00, 0x00, 0x00, 0x00, 0x00, 0x00, 0x00, 0x00, 0x00, 0x08, 0x00, 
  0x00, 0x00, 0x00, 0x00, 0x00, 0x00, 0x00, 0x00, 0x00, 0x00, 0x00, 0x00, 
  0x00, 0x00, 0x1C, 0x00, 0x3F, 0x3E, 0x3F, 0x3E, 0xFF, 0x63, 0xC3, 0xC3, 
  0xC3, 0xC3, 0xFF, 0x3C, 0x00, 0x3C, 0x36, 0x00, 0x66, 0x63, 0x66, 0x63, 
  0xDB, 0x63, 0xC3, 0xC3, 0xC3, 0xC3, 0xC3, 0x0C, 0x01, 0x30, 0x63, 0x00, 
  0x66, 0x63, 0x66, 0x63, 0x99, 0x63, 0xC3, 0xC3, 0x66, 0xC3, 0x61, 0x0C, 
  0x03, 0x30, 0x00, 0x00, 0x66, 0x63, 0x66, 0x06, 0x18, 0x63, 0xC3, 0xC3, 
  0x3C, 0x66, 0x30, 0x0C, 0x07, 0x30, 0x00, 0x00, 0x3E, 0x63, 0x3E, 0x1C, 
  0x18, 0x63, 0xC3, 0xC3, 0x18, 0x3C, 0x18, 0x0C, 0x0E, 0x30, 0x00, 0x00, 
  0x06, 0x63, 0x36, 0x30, 0x18, 0x63, 0xC3, 0xDB, 0x18, 0x18, 0x0C, 0x0C, 
  0x1C, 0x30, 0x00, 0x00, 0x06, 0x63, 0x66, 0x60, 0x18, 0x63, 0xC3, 0xDB, 
  0x3C, 0x18, 0x06, 0x0C, 0x38, 0x30, 0x00, 0x00, 0x06, 0x6B, 0x66, 0x63, 
  0x18, 0x63, 0x66, 0xFF, 0x66, 0x18, 0x83, 0x0C, 0x70, 0x30, 0x00, 0x00, 
  0x06, 0x7B, 0x66, 0x63, 0x18, 0x63, 0x3C, 0x66, 0xC3, 0x18, 0xC3, 0x0C, 
  0x60, 0x30, 0x00, 0x00, 0x0F, 0x3E, 0x67, 0x3E, 0x3C, 0x3E, 0x18, 0x66, 
  0xC3, 0x3C, 0xFF, 0x3C, 0x40, 0x3C, 0x00, 0x00, 0x00, 0x30, 0x00, 0x00, 
  0x00, 0x00, 0x00, 0x00, 0x00, 0x00, 0x00, 0x00, 0x00, 0x00, 0x00, 0x00, 
  0x00, 0x70, 0x00, 0x00, 0x00, 0x00, 0x00, 0x00, 0x00, 0x00, 0x00, 0x00, 
  0x00, 0x00, 0x00, 0xFF, 0x00, 0x00, 0x00, 0x00, 0x00, 0x00, 0x00, 0x00, 
  0x00, 0x00, 0x00, 0x00, 0x00, 0x00, 0x00, 0x00, 0x00, 0x00, 0x00, 0x00, 
  0x00, 0x00, 0x00, 0x00, 0x00, 0x00, 0x00, 0x00, 0x00, 0x00, 0x00, 0x00, 
  0x0C, 0x00, 0x00, 0x00, 0x00, 0x00, 0x00, 0x00, 0x00, 0x00, 0x00, 0x00, 
  0x00, 0x00, 0x00, 0x00, 0x0C, 0x00, 0x00, 0x00, 0x00, 0x00, 0x00, 0x00, 
  0x00, 0x00, 0x00, 0x00, 0x00, 0x00, 0x00, 0x00, 0x18, 0x00, 0x07, 0x00, 
  0x38, 0x00, 0x1C, 0x00, 0x07, 0x18, 0x60, 0x07, 0x1C, 0x00, 0x00, 0x00, 
  0x00, 0x00, 0x06, 0x00, 0x30, 0x00, 0x36, 0x00, 0x06, 0x18, 0x60, 0x06, 
  0x18, 0x00, 0x00, 0x00, 0x00, 0x00, 0x06, 0x00, 0x30, 0x00, 0x26, 0x00, 
  0x06, 0x00, 0x00, 0x06, 0x18, 0x00, 0x00, 0x00, 0x00, 0x1E, 0x1E, 0x3E, 
  0x3C, 0x3E, 0x06, 0x6E, 0x36, 0x1C, 0x70, 0x66, 0x18, 0x67, 0x3B, 0x3E, 
  0x00, 0x30, 0x36, 0x63, 0x36, 0x63, 0x0F, 0x33, 0x6E, 0x18, 0x60, 0x36, 
  0x18, 0xFF, 0x66, 0x63, 0x00, 0x3E, 0x66, 0x03, 0x33, 0x7F, 0x06, 0x33, 
  0x66, 0x18, 0x60, 0x1E, 0x18, 0xDB, 0x66, 0x63, 0x00, 0x33, 0x66, 0x03, 
  0x33, 0x03, 0x06, 0x33, 0x66, 0x18, 0x60, 0x1E, 0x18, 0xDB, 0x66, 0x63, 
  0x00, 0x33, 0x66, 0x03, 0x33, 0x03, 0x06, 0x33, 0x66, 0x18, 0x60, 0x36, 
  0x18, 0xDB, 0x66, 0x63, 0x00, 0x33, 0x66, 0x63, 0x33, 0x63, 0x06, 0x33, 
  0x66, 0x18, 0x60, 0x66, 0x18, 0xDB, 0x66, 0x63, 0x00, 0x6E, 0x3E, 0x3E, 
  0x6E, 0x3E, 0x0F, 0x3E, 0x67, 0x3C, 0x60, 0x67, 0x3C, 0xDB, 0x66, 0x3E, 
  0x00, 0x00, 0x00, 0x00, 0x00, 0x00, 0x00, 0x30, 0x00, 0x00, 0x66, 0x00, 
  0x00, 0x00, 0x00, 0x00, 0x00, 0x00, 0x00, 0x00, 0x00, 0x00, 0x00, 0x33, 
  0x00, 0x00, 0x66, 0x00, 0x00, 0x00, 0x00, 0x00, 0x00, 0x00, 0x00, 0x00, 
  0x00, 0x00, 0x00, 0x1E, 0x00, 0x00, 0x3C, 0x00, 0x00, 0x00, 0x00, 0x00, 
  0x00, 0x00, 0x00, 0x00, 0x00, 0x00, 0x00, 0x00, 0x00, 0x00, 0x00, 0x00, 
  0x00, 0x00, 0x00, 0x00, 0x00, 0x00, 0x00, 0x00, 0x00, 0x00, 0x00, 0x00, 
  0x00, 0x00, 0x00, 0x00, 0x00, 0x00, 0x00, 0x00, 0x00, 0x00, 0x00, 0x00, 
  0x00, 0x00, 0x00, 0x00, 0x00, 0x00, 0x00, 0x00, 0x00, 0x00, 0x00, 0x00, 
  0x00, 0x00, 0x00, 0x00, 0x08, 0x00, 0x00, 0x00, 0x00, 0x00, 0x00, 0x70, 
  0x18, 0x0E, 0x6E, 0x00, 0x00, 0x00, 0x00, 0x00, 0x0C, 0x00, 0x00, 0x00, 
  0x00, 0x00, 0x00, 0x18, 0x18, 0x18, 0x3B, 0x00, 0x00, 0x00, 0x00, 0x00, 
  0x0C, 0x00, 0x00, 0x00, 0x00, 0x00, 0x00, 0x18, 0x18, 0x18, 0x00, 0x08, 
  0x3B, 0x6E, 0x3B, 0x3E, 0x3F, 0x33, 0xC3, 0xC3, 0xC3, 0x63, 0x7F, 0x18, 
  0x18, 0x18, 0x00, 0x1C, 0x66, 0x33, 0x6E, 0x63, 0x0C, 0x33, 0xC3, 0xC3, 
  0x66, 0x63, 0x33, 0x0E, 0x00, 0x70, 0x00, 0x36, 0x66, 0x33, 0x66, 0x06, 
  0x0C, 0x33, 0xC3, 0xC3, 0x3C, 0x63, 0x18, 0x18, 0x18, 0x18, 0x00, 0x63, 
  0x66, 0x33, 0x06, 0x1C, 0x0C, 0x33, 0xC3, 0xDB, 0x18, 0x63, 0x0C, 0x18, 
  0x18, 0x18, 0x00, 0x63, 0x66, 0x33, 0x06, 0x30, 0x0C, 0x33, 0x66, 0xDB, 
  0x3C, 0x63, 0x06, 0x18, 0x18, 0x18, 0x00, 0x63, 0x66, 0x33, 0x06, 0x63, 
  0x6C, 0x33, 0x3C, 0xFF, 0x66, 0x63, 0x63, 0x18, 0x18, 0x18, 0x00, 0x7F, 
  0x3E, 0x3E, 0x0F, 0x3E, 0x38, 0x6E, 0x18, 0x66, 0xC3, 0x7E, 0x7F, 0x70, 
  0x18, 0x0E, 0x00, 0x00, 0x06, 0x30, 0x00, 0x00, 0x00, 0x00, 0x00, 0x00, 
  0x00, 0x60, 0x00, 0x00, 0x00, 0x00, 0x00, 0x00, 0x06, 0x30, 0x00, 0x00, 
  0x00, 0x00, 0x00, 0x00, 0x00, 0x30, 0x00, 0x00, 0x00, 0x00, 0x00, 0x00, 
  0x0F, 0x78, 0x00, 0x00, 0x00, 0x00, 0x00, 0x00, 0x00, 0x1F, 0x00, 0x00, 
  0x00, 0x00, 0x00, 0x00, 0x00, 0x00, 0x00, 0x00, 0x00, 0x00, 0x00, 0x00, 
  0x00, 0x00, 0x00, 0x00, 0x00, 0x00, 0x00, 0x00, 0x00, 0x00, 0x00, 0x00, 
  0x00, 0x00, 0x00, 0x00, 0x00, 0x00, 0x00, 0x00, 0x00, 0x00, 0x00, 0x1C, 
  0x00, 0x00, 0x30, 0x08, 0x00, 0x06, 0x1C, 0x00, 0x08, 0x00, 0x06, 0x00, 
  0x18, 0x06, 0x63, 0x36, 0x3C, 0x33, 0x18, 0x1C, 0x33, 0x0C, 0x36, 0x00, 
  0x1C, 0x63, 0x0C, 0x66, 0x3C, 0x0C, 0x00, 0x1C, 0x66, 0x00, 0x0C, 0x36, 
  0x00, 0x18, 0x1C, 0x00, 0x36, 0x00, 0x18, 0x00, 0x66, 0x18, 0x08, 0x00, 
  0x43, 0x00, 0x00, 0x00, 0x00, 0x00, 0x00, 0x3C, 0x00, 0x00, 0x00, 0x00, 
  0x00, 0x00, 0x1C, 0x1C, 0x03, 0x33, 0x3E, 0x1E, 0x1E, 0x1E, 0x1E, 0x66, 
  0x3E, 0x3E, 0x3E, 0x1C, 0x1C, 0x1C, 0x36, 0x36, 0x03, 0x33, 0x63, 0x30, 
  0x30, 0x30, 0x30, 0x06, 0x63, 0x63, 0x63, 0x18, 0x18, 0x18, 0x63, 0x63, 
  0x03, 0x33, 0x7F, 0x3E, 0x3E, 0x3E, 0x3E, 0x06, 0x7F, 0x7F, 0x7F, 0x18, 
  0x18, 0x18, 0x63, 0x63, 0x43, 0x33, 0x03, 0x33, 0x33, 0x33, 0x33, 0x66, 
  0x03, 0x03, 0x03, 0x18, 0x18, 0x18, 0x7F, 0x7F, 0x66, 0x33, 0x03, 0x33, 
  0x33, 0x33, 0x33, 0x3C, 0x03, 0x03, 0x03, 0x18, 0x18, 0x18, 0x63, 0x63, 
  0x3C, 0x33, 0x63, 0x33, 0x33, 0x33, 0x33, 0x30, 0x63, 0x63, 0x63, 0x18, 
  0x18, 0x18, 0x63, 0x63, 0x30, 0x6E, 0x3E, 0x6E, 0x6E, 0x6E, 0x6E, 0x60, 
  0x3E, 0x3E, 0x3E, 0x3C, 0x3C, 0x3C, 0x63, 0x63, 0x60, 0x00, 0x00, 0x00, 
  0x00, 0x00, 0x00, 0x3C, 0x00, 0x00, 0x00, 0x00, 0x00, 0x00, 0x00, 0x00, 
  0x3E, 0x00, 0x00, 0x00, 0x00, 0x00, 0x00, 0x00, 0x00, 0x00, 0x00, 0x00, 
  0x00, 0x00, 0x00, 0x00, 0x00, 0x00, 0x00, 0x00, 0x00, 0x00, 0x00, 0x00, 
  0x00, 0x00, 0x00, 0x00, 0x00, 0x00, 0x00, 0x00, 0x00, 0x00, 0x00, 0x00, 
  0x00, 0x00, 0x00, 0x00, 0x00, 0x00, 0x00, 0x00, 0x00, 0x00, 0x00, 0x00, 
  0x18, 0x00, 0x00, 0x00, 0x00, 0x00, 0x00, 0x00, 0x00, 0x00, 0x00, 0x00, 
  0x00, 0x00, 0x00, 0x00, 0x0C, 0x00, 0x00, 0x08, 0x00, 0x06, 0x0C, 0x06, 
  0x00, 0x63, 0x63, 0x18, 0x1C, 0x00, 0x3F, 0x70, 0x06, 0x00, 0x7C, 0x1C, 
  0x63, 0x0C, 0x1E, 0x0C, 0x63, 0x00, 0x00, 0x18, 0x36, 0xC3, 0x66, 0xD8, 
  0x00, 0x00, 0x36, 0x36, 0x00, 0x18, 0x33, 0x18, 0x00, 0x3E, 0x63, 0x7E, 
  0x26, 0x66, 0x66, 0x18, 0x7F, 0x00, 0x33, 0x00, 0x00, 0x00, 0x00, 0x00, 
  0x00, 0x63, 0x63, 0xC3, 0x06, 0x3C, 0x3E, 0x18, 0x66, 0x76, 0x33, 0x3E, 
  0x3E, 0x3E, 0x33, 0x33, 0x63, 0x63, 0x63, 0x03, 0x0F, 0x18, 0x46, 0x18, 
  0x06, 0xDC, 0x7F, 0x63, 0x63, 0x63, 0x33, 0x33, 0x63, 0x63, 0x63, 0x03, 
  0x06, 0xFF, 0x66, 0x7E, 0x3E, 0xD8, 0x33, 0x63, 0x63, 0x63, 0x33, 0x33, 
  0x63, 0x63, 0x63, 0x03, 0x06, 0x18, 0xF6, 0x18, 0x06, 0x7E, 0x33, 0x63, 
  0x63, 0x63, 0x33, 0x33, 0x63, 0x63, 0x63, 0xC3, 0x06, 0xFF, 0x66, 0x18, 
  0x06, 0x1B, 0x33, 0x63, 0x63, 0x63, 0x33, 0x33, 0x63, 0x63, 0x63, 0x7E, 
  0x06, 0x18, 0x66, 0x18, 0x66, 0x3B, 0x33, 0x63, 0x63, 0x63, 0x33, 0x33, 
  0x63, 0x63, 0x63, 0x18, 0x67, 0x18, 0x66, 0x18, 0x7F, 0xEE, 0x73, 0x3E, 
  0x3E, 0x3E, 0x6E, 0x6E, 0x7E, 0x3E, 0x3E, 0x18, 0x3F, 0x18, 0xCF, 0x18, 
  0x00, 0x00, 0x00, 0x00, 0x00, 0x00, 0x00, 0x00, 0x60, 0x00, 0x00, 0x00, 
  0x00, 0x00, 0x00, 0x1B, 0x00, 0x00, 0x00, 0x00, 0x00, 0x00, 0x00, 0x00, 
  0x30, 0x00, 0x00, 0x00, 0x00, 0x00, 0x00, 0x0E, 0x00, 0x00, 0x00, 0x00, 
  0x00, 0x00, 0x00, 0x00, 0x1E, 0x00, 0x00, 0x00, 0x00, 0x00, 0x00, 0x00, 
  0x00, 0x00, 0x00, 0x00, 0x00, 0x00, 0x00, 0x00, 0x00, 0x00, 0x00, 0x00, 
  0x00, 0x00, 0x00, 0x00, 0x00, 0x00, 0x00, 0x00, 0x00, 0x6E, 0x00, 0x00, 
  0x00, 0x00, 0x00, 0x00, 0x00, 0x00, 0x00, 0x00, 0x18, 0x30, 0x18, 0x18, 
  0x00, 0x3B, 0x3C, 0x1C, 0x00, 0x00, 0x00, 0x03, 0x03, 0x00, 0x00, 0x00, 
  0x0C, 0x18, 0x0C, 0x0C, 0x6E, 0x00, 0x36, 0x36, 0x0C, 0x00, 0x00, 0x03, 
  0x03, 0x18, 0x00, 0x00, 0x06, 0x0C, 0x06, 0x06, 0x3B, 0x63, 0x36, 0x36, 
  0x0C, 0x00, 0x00, 0x43, 0x43, 0x18, 0x00, 0x00, 0x00, 0x00, 0x00, 0x00, 
  0x00, 0x67, 0x7C, 0x1C, 0x00, 0x00, 0x00, 0x63, 0x63, 0x00, 0x00, 0x00, 
  0x1E, 0x1C, 0x3E, 0x33, 0x3B, 0x6F, 0x00, 0x00, 0x0C, 0x00, 0x00, 0x33, 
  0x33, 0x18, 0x6C, 0x1B, 0x30, 0x18, 0x63, 0x33, 0x66, 0x7F, 0x7E, 0x3E, 
  0x0C, 0x7F, 0x7F, 0x18, 0x18, 0x18, 0x36, 0x36, 0x3E, 0x18, 0x63, 0x33, 
  0x66, 0x7B, 0x00, 0x00, 0x06, 0x03, 0x60, 0x0C, 0x0C, 0x18, 0x1B, 0x6C, 
  0x33, 0x18, 0x63, 0x33, 0x66, 0x73, 0x00, 0x00, 0x03, 0x03, 0x60, 0x06, 
  0x66, 0x3C, 0x36, 0x36, 0x33, 0x18, 0x63, 0x33, 0x66, 0x63, 0x00, 0x00, 
  0x63, 0x03, 0x60, 0x73, 0x73, 0x3C, 0x6C, 0x1B, 0x33, 0x18, 0x63, 0x33, 
  0x66, 0x63, 0x00, 0x00, 0x63, 0x03, 0x60, 0xD9, 0x69, 0x3C, 0x00, 0x00, 
  0x6E, 0x3C, 0x3E, 0x6E, 0x66, 0x63, 0x00, 0x00, 0x3E, 0x00, 0x00, 0x60, 
  0x7C, 0x18, 0x00, 0x00, 0x00, 0x00, 0x00, 0x00, 0x00, 0x00, 0x00, 0x00, 
  0x00, 0x00, 0x00, 0x30, 0x60, 0x00, 0x00, 0x00, 0x00, 0x00, 0x00, 0x00, 
  0x00, 0x00, 0x00, 0x00, 0x00, 0x00, 0x00, 0xF8, 0x60, 0x00, 0x00, 0x00, 
  0x00, 0x00, 0x00, 0x00, 0x00, 0x00, 0x00, 0x00, 0x00, 0x00, 0x00, 0x00, 
  0x00, 0x00, 0x00, 0x00, 0x00, 0x00, 0x00, 0x00, 0x00, 0x00, 0x00, 0x00, 
  0x00, 0x00, 0x00, 0x00, 0x00, 0x00, 0x00, 0x00, 0x88, 0xAA, 0xBB, 0x18, 
  0x18, 0x18, 0x6C, 0x00, 0x00, 0x6C, 0x6C, 0x00, 0x6C, 0x6C, 0x18, 0x00, 
  0x22, 0x55, 0xEE, 0x18, 0x18, 0x18, 0x6C, 0x00, 0x00, 0x6C, 0x6C, 0x00, 
  0x6C, 0x6C, 0x18, 0x00, 0x88, 0xAA, 0xBB, 0x18, 0x18, 0x18, 0x6C, 0x00, 
  0x00, 0x6C, 0x6C, 0x00, 0x6C, 0x6C, 0x18, 0x00, 0x22, 0x55, 0xEE, 0x18, 
  0x18, 0x18, 0x6C, 0x00, 0x00, 0x6C, 0x6C, 0x00, 0x6C, 0x6C, 0x18, 0x00, 
  0x88, 0xAA, 0xBB, 0x18, 0x18, 0x18, 0x6C, 0x00, 0x00, 0x6C, 0x6C, 0x00, 
  0x6C, 0x6C, 0x18, 0x00, 0x22, 0x55, 0xEE, 0x18, 0x18, 0x1F, 0x6C, 0x00, 
  0x1F, 0x6F, 0x6C, 0x7F, 0x6F, 0x6C, 0x1F, 0x00, 0x88, 0xAA, 0xBB, 0x18, 
  0x18, 0x18, 0x6C, 0x00, 0x18, 0x60, 0x6C, 0x60, 0x60, 0x6C, 0x18, 0x00, 
  0x22, 0x55, 0xEE, 0x18, 0x1F, 0x1F, 0x6F, 0x7F, 0x1F, 0x6F, 0x6C, 0x6F, 
  0x7F, 0x7F, 0x1F, 0x1F, 0x88, 0xAA, 0xBB, 0x18, 0x18, 0x18, 0x6C, 0x6C, 
  0x18, 0x6C, 0x6C, 0x6C, 0x00, 0x00, 0x00, 0x18, 0x22, 0x55, 0xEE, 0x18, 
  0x18, 0x18, 0x6C, 0x6C, 0x18, 0x6C, 0x6C, 0x6C, 0x00, 0x00, 0x00, 0x18, 
  0x88, 0xAA, 0xBB, 0x18, 0x18, 0x18, 0x6C, 0x6C, 0x18, 0x6C, 0x6C, 0x6C, 
  0x00, 0x00, 0x00, 0x18, 0x22, 0x55, 0xEE, 0x18, 0x18, 0x18, 0x6C, 0x6C, 
  0x18, 0x6C, 0x6C, 0x6C, 0x00, 0x00, 0x00, 0x18, 0x88, 0xAA, 0xBB, 0x18, 
  0x18, 0x18, 0x6C, 0x6C, 0x18, 0x6C, 0x6C, 0x6C, 0x00, 0x00, 0x00, 0x18, 
  0x22, 0x55, 0xEE, 0x18, 0x18, 0x18, 0x6C, 0x6C, 0x18, 0x6C, 0x6C, 0x6C, 
  0x00, 0x00, 0x00, 0x18, 0x88, 0xAA, 0xBB, 0x18, 0x18, 0x18, 0x6C, 0x6C, 
  0x18, 0x6C, 0x6C, 0x6C, 0x00, 0x00, 0x00, 0x18, 0x22, 0x55, 0xEE, 0x18, 
  0x18, 0x18, 0x6C, 0x6C, 0x18, 0x6C, 0x6C, 0x6C, 0x00, 0x00, 0x00, 0x18, 
  0x18, 0x18, 0x00, 0x18, 0x00, 0x18, 0x18, 0x6C, 0x6C, 0x00, 0x6C, 0x00, 
  0x6C, 0x00, 0x6C, 0x18, 0x18, 0x18, 0x00, 0x18, 0x00, 0x18, 0x18, 0x6C, 
  0x6C, 0x00, 0x6C, 0x00, 0x6C, 0x00, 0x6C, 0x18, 0x18, 0x18, 0x00, 0x18, 
  0x00, 0x18, 0x18, 0x6C, 0x6C, 0x00, 0x6C, 0x00, 0x6C, 0x00, 0x6C, 0x18, 
  0x18, 0x18, 0x00, 0x18, 0x00, 0x18, 0x18, 0x6C, 0x6C, 0x00, 0x6C, 0x00, 
  0x6C, 0x00, 0x6C, 0x18, 0x18, 0x18, 0x00, 0x18, 0x00, 0x18, 0x18, 0x6C, 
  0x6C, 0x00, 0x6C, 0x00, 0x6C, 0x00, 0x6C, 0x18, 0x18, 0x18, 0x00, 0x18, 
  0x00, 0x18, 0xF8, 0x6C, 0xEC, 0xFC, 0xEF, 0xFF, 0xEC, 0xFF, 0xEF, 0xFF, 
  0x18, 0x18, 0x00, 0x18, 0x00, 0x18, 0x18, 0x6C, 0x0C, 0x0C, 0x00, 0x00, 
  0x0C, 0x00, 0x00, 0x00, 0xF8, 0xFF, 0xFF, 0xF8, 0xFF, 0xFF, 0xF8, 0xEC, 
  0xFC, 0xEC, 0xFF, 0xEF, 0xEC, 0xFF, 0xEF, 0xFF, 0x00, 0x00, 0x18, 0x18, 
  0x00, 0x18, 0x18, 0x6C, 0x00, 0x6C, 0x00, 0x6C, 0x6C, 0x00, 0x6C, 0x00, 
  0x00, 0x00, 0x18, 0x18, 0x00, 0x18, 0x18, 0x6C, 0x00, 0x6C, 0x00, 0x6C, 
  0x6C, 0x00, 0x6C, 0x00, 0x00, 0x00, 0x18, 0x18, 0x00, 0x18, 0x18, 0x6C, 
  0x00, 0x6C, 0x00, 0x6C, 0x6C, 0x00, 0x6C, 0x00, 0x00, 0x00, 0x18, 0x18, 
  0x00, 0x18, 0x18, 0x6C, 0x00, 0x6C, 0x00, 0x6C, 0x6C, 0x00, 0x6C, 0x00, 
  0x00, 0x00, 0x18, 0x18, 0x00, 0x18, 0x18, 0x6C, 0x00, 0x6C, 0x00, 0x6C, 
  0x6C, 0x00, 0x6C, 0x00, 0x00, 0x00, 0x18, 0x18, 0x00, 0x18, 0x18, 0x6C, 
  0x00, 0x6C, 0x00, 0x6C, 0x6C, 0x00, 0x6C, 0x00, 0x00, 0x00, 0x18, 0x18, 
  0x00, 0x18, 0x18, 0x6C, 0x00, 0x6C, 0x00, 0x6C, 0x6C, 0x00, 0x6C, 0x00, 
  0x00, 0x00, 0x18, 0x18, 0x00, 0x18, 0x18, 0x6C, 0x00, 0x6C, 0x00, 0x6C, 
  0x6C, 0x00, 0x6C, 0x00, 0x6C, 0x00, 0x00, 0x6C, 0x18, 0x00, 0x00, 0x6C, 
  0x18, 0x18, 0x00, 0xFF, 0x00, 0x0F, 0xF0, 0xFF, 0x6C, 0x00, 0x00, 0x6C, 
  0x18, 0x00, 0x00, 0x6C, 0x18, 0x18, 0x00, 0xFF, 0x00, 0x0F, 0xF0, 0xFF, 
  0x6C, 0x00, 0x00, 0x6C, 0x18, 0x00, 0x00, 0x6C, 0x18, 0x18, 0x00, 0xFF, 
  0x00, 0x0F, 0xF0, 0xFF, 0x6C, 0x00, 0x00, 0x6C, 0x18, 0x00, 0x00, 0x6C, 
  0x18, 0x18, 0x00, 0xFF, 0x00, 0x0F, 0xF0, 0xFF, 0x6C, 0x00, 0x00, 0x6C, 
  0x18, 0x00, 0x00, 0x6C, 0x18, 0x18, 0x00, 0xFF, 0x00, 0x0F, 0xF0, 0xFF, 
  0x6C, 0xFF, 0x00, 0x6C, 0xF8, 0xF8, 0x00, 0x6C, 0xFF, 0x18, 0x00, 0xFF, 
  0x00, 0x0F, 0xF0, 0xFF, 0x6C, 0x00, 0x00, 0x6C, 0x18, 0x18, 0x00, 0x6C, 
  0x18, 0x18, 0x00, 0xFF, 0x00, 0x0F, 0xF0, 0xFF, 0xFF, 0xFF, 0xFF, 0xFC, 
  0xF8, 0xF8, 0xFC, 0xFF, 0xFF, 0x1F, 0xF8, 0xFF, 0xFF, 0x0F, 0xF0, 0x00, 
  0x00, 0x18, 0x6C, 0x00, 0x00, 0x18, 0x6C, 0x6C, 0x18, 0x00, 0x18, 0xFF, 
  0xFF, 0x0F, 0xF0, 0x00, 0x00, 0x18, 0x6C, 0x00, 0x00, 0x18, 0x6C, 0x6C, 
  0x18, 0x00, 0x18, 0xFF, 0xFF, 0x0F, 0xF0, 0x00, 0x00, 0x18, 0x6C, 0x00, 
  0x00, 0x18, 0x6C, 0x6C, 0x18, 0x00, 0x18, 0xFF, 0xFF, 0x0F, 0xF0, 0x00, 
  0x00, 0x18, 0x6C, 0x00, 0x00, 0x18, 0x6C, 0x6C, 0x18, 0x00, 0x18, 0xFF, 
  0xFF, 0x0F, 0xF0, 0x00, 0x00, 0x18, 0x6C, 0x00, 0x00, 0x18, 0x6C, 0x6C, 
  0x18, 0x00, 0x18, 0xFF, 0xFF, 0x0F, 0xF0, 0x00, 0x00, 0x18, 0x6C, 0x00, 
  0x00, 0x18, 0x6C, 0x6C, 0x18, 0x00, 0x18, 0xFF, 0xFF, 0x0F, 0xF0, 0x00, 
  0x00, 0x18, 0x6C, 0x00, 0x00, 0x18, 0x6C, 0x6C, 0x18, 0x00, 0x18, 0xFF, 
  0xFF, 0x0F, 0xF0, 0x00, 0x00, 0x18, 0x6C, 0x00, 0x00, 0x18, 0x6C, 0x6C, 
  0x18, 0x00, 0x18, 0xFF, 0xFF, 0x0F, 0xF0, 0x00, 0x00, 0x00, 0x00, 0x00, 
  0x00, 0x00, 0x00, 0x00, 0x00, 0x00, 0x00, 0x00, 0x00, 0x00, 0x00, 0x00, 
  0x00, 0x00, 0x00, 0x00, 0x00, 0x00, 0x00, 0x00, 0x00, 0x00, 0x00, 0x00, 
  0x00, 0x00, 0x00, 0x00, 0x00, 0x1E, 0x7F, 0x00, 0x00, 0x00, 0x00, 0x00, 
  0x00, 0x00, 0x1C, 0x78, 0x00, 0x00, 0x38, 0x00, 0x00, 0x33, 0x63, 0x00, 
  0x7F, 0x00, 0x00, 0x00, 0x7E, 0x1C, 0x36, 0x0C, 0x00, 0xC0, 0x0C, 0x3E, 
  0x00, 0x33, 0x63, 0x7F, 0x63, 0x00, 0x66, 0x6E, 0x18, 0x36, 0x63, 0x18, 
  0x00, 0x60, 0x06, 0x63, 0x6E, 0x33, 0x03, 0x36, 0x06, 0x7E, 0x66, 0x3B, 
  0x3C, 0x63, 0x63, 0x30, 0x7E, 0x7E, 0x06, 0x63, 0x3B, 0x1B, 0x03, 0x36, 
  0x0C, 0x1B, 0x66, 0x18, 0x66, 0x63, 0x63, 0x7C, 0xDB, 0xDB, 0x3E, 0x63, 
  0x1B, 0x33, 0x03, 0x36, 0x18, 0x1B, 0x66, 0x18, 0x66, 0x7F, 0x36, 0x66, 
  0xDB, 0xDB, 0x06, 0x63, 0x1B, 0x63, 0x03, 0x36, 0x0C, 0x1B, 0x66, 0x18, 
  0x66, 0x63, 0x36, 0x66, 0xDB, 0xCF, 0x06, 0x63, 0x1B, 0x63, 0x03, 0x36, 
  0x06, 0x1B, 0x3E, 0x18, 0x3C, 0x63, 0x36, 0x66, 0x7E, 0x7E, 0x06, 0x63, 
  0x3B, 0x63, 0x03, 0x36, 0x63, 0x1B, 0x06, 0x18, 0x18, 0x36, 0x36, 0x66, 
  0x00, 0x06, 0x0C, 0x63, 0x6E, 0x33, 0x03, 0x36, 0x7F, 0x0E, 0x06, 0x18, 
  0x7E, 0x1C, 0x77, 0x3C, 0x00, 0x03, 0x38, 0x63, 0x00, 0x00, 0x00, 0x00, 
  0x00, 0x00, 0x03, 0x00, 0x00, 0x00, 0x00, 0x00, 0x00, 0x00, 0x00, 0x00, 
  0x00, 0x00, 0x00, 0x00, 0x00, 0x00, 0x00, 0x00, 0x00, 0x00, 0x00, 0x00, 
  0x00, 0x00, 0x00, 0x00, 0x00, 0x00, 0x00, 0x00, 0x00, 0x00, 0x00, 0x00, 
  0x00, 0x00, 0x00, 0x00, 0x00, 0x00, 0x00, 0x00, 0x00, 0x00, 0x00, 0x00, 
  0x00, 0x00, 0x00, 0x00, 0x00, 0x00, 0x00, 0x00, 0x00, 0x00, 0x00, 0x00, 
  0x00, 0x00, 0x00, 0x00, 0x00, 0x18, 0x00, 0x00, 0x00, 0x00, 0x00, 0x00, 
  0x00, 0x00, 0x00, 0x00, 0x00, 0x00, 0x00, 0x00, 0x00, 0x18, 0x00, 0x00, 
  0x1C, 0x00, 0x00, 0xF0, 0x1B, 0x0E, 0x00, 0x00, 0x00, 0x00, 0x00, 0x00, 
  0x70, 0x18, 0x00, 0x00, 0x36, 0x00, 0x00, 0x30, 0x36, 0x1B, 0x00, 0x00, 
  0x00, 0x00, 0x0C, 0x30, 0xD8, 0x18, 0x00, 0x00, 0x36, 0x00, 0x00, 0x30, 
  0x36, 0x0C, 0x00, 0x00, 0x7F, 0x18, 0x18, 0x18, 0xD8, 0x18, 0x18, 0x00, 
  0x1C, 0x00, 0x00, 0x30, 0x36, 0x06, 0x3E, 0x00, 0x00, 0x18, 0x30, 0x0C, 
  0xD8, 0x18, 0x18, 0x6E, 0x00, 0x00, 0x00, 0x30, 0x36, 0x13, 0x3E, 0x00, 
  0x00, 0x7E, 0x60, 0x06, 0x18, 0x18, 0x00, 0x3B, 0x00, 0x00, 0x00, 0x30, 
  0x36, 0x1F, 0x3E, 0x00, 0x7F, 0x18, 0x30, 0x0C, 0x18, 0x18, 0x7E, 0x00, 
  0x00, 0x18, 0x00, 0x37, 0x00, 0x00, 0x3E, 0x00, 0x00, 0x18, 0x18, 0x18, 
  0x18, 0x1B, 0x00, 0x6E, 0x00, 0x18, 0x18, 0x36, 0x00, 0x00, 0x3E, 0x00, 
  0x00, 0x00, 0x0C, 0x30, 0x18, 0x1B, 0x18, 0x3B, 0x00, 0x00, 0x00, 0x36, 
  0x00, 0x00, 0x3E, 0x00, 0x7F, 0x00, 0x00, 0x00, 0x18, 0x1B, 0x18, 0x00, 
  0x00, 0x00, 0x00, 0x3C, 0x00, 0x00, 0x3E, 0x00, 0x00, 0xFF, 0x7E, 0x7E, 
  0x18, 0x0E, 0x00, 0x00, 0x00, 0x00, 0x00, 0x38, 0x00, 0x00, 0x00, 0x00, 
  0x00, 0x00, 0x00, 0x00, 0x18, 0x00, 0x00, 0x00, 0x00, 0x00, 0x00, 0x00, 
  0x00, 0x00, 0x00, 0x00, 0x00, 0x00, 0x00, 0x00, 0x18, 0x00, 0x00, 0x00, 
  0x00, 0x00, 0x00, 0x00, 0x00, 0x00, 0x00, 0x00, 0x00, 0x00, 0x00, 0x00, 
  0x18, 0x00, 0x00, 0x00, 0x00, 0x00, 0x00, 0x00, 0x00, 0x00, 0x00, 0x00, 
  0x00, 0x00, 0x00, 0x00, 0x18, 0x00, 0x00, 0x00, 0x00, 0x00, 0x00, 0x00, 
  0x00, 0x00, 0x00, 0x00, };
